<svg xmlns="http://www.w3.org/2000/svg" viewBox="0 0 1738 529" width="1738" height="529"><defs><mask id="mask-16471094774179452624" mask-type="alpha">
<path d="M1159.5494779632759,510.1478269293245 C1220.118055779753,500.7454851569647 1253.7915848649193,493.9670548502177 1295.7741349499845,495.0603505991243 C1337.7566850350497,496.1536463480309 1371.8675257468308,502.494765028163 1394.6080639781924,514.7396740794429 C1417.348602209554,526.9845831307229 1459.549824790296,551.6930653877748 1459.549824790296,551.6930653877748 C1459.549824790296,551.6930653877748 1475.51194939728,561.7513829412417 1475.51194939728,561.7513829412417 C1475.51194939728,561.7513829412417 1484.4769545194708,565.3432217501754 1484.4769545194708,564.9059101235605 C1484.4769545194708,564.8552733533828 1432.251027741999,566.128449715048 1374.587512058619,562.3290775461179 C1335.374253700229,559.7453682336649 1294.681994549205,553.8163970119281 1262.16005074839,547.4186522456878 C1238.7636382130652,542.8160898415636 1229.4400964327551,511.3896362707451 1222.919765554138,500.26675030359837 C1222.919765554138,500.26675030359837 1210.9468739134918,502.04453384681005 1210.9468739134918,502.04453384681005 C1211.0647360358328,502.2986174174842 1225.7719034533347,530.7043754748607 1225.914791344372,530.9260979477384 C1237.0376846271133,548.1857508567715 1209.2991316723244,539.670477516593 1198.874656748602,537.8299561851138 C1178.2052617506854,534.1806153136744 1145.0945828547606,530.2538941826591 1126.6171495755118,527.8318241488228 C1093.2053976708373,523.4521247694089 1142.9993955631185,512.7169731219012 1159.5494779632759,510.1478269293245 Z" fill="#373737" stroke="#000000" stroke-width="5.7"/></mask></defs><g transform="matrix(1,0,0,1,-87.887879216,-251.120196431)">
<g>
	<g>
		<path d="M1826.0354588132932,652.3796620044818 C1826.0354588132932,652.3796620044818 1755.9597318262554,650.8374633202941 1755.9597318262554,650.8374633202941 C1755.9597318262554,650.8374633202941 1719.3940220529357,663.0480066570578 1687.0312144767129,663.8870387511284 C1654.66840690049,664.726070845199 1555.9019062665343,665.5651120840336 1555.9019062665343,665.5651120840336 C1555.9019062665343,665.5651120840336 1461.2436897478624,663.5472264549908 1425.8028252175645,662.624287127817 C1390.3619606872667,661.7013478006431 1289.494626215102,657.4582901705342 1289.494626215102,657.4582901705342 C1289.494626215102,657.4582901705342 1288.7870560797903,664.8877708073859 1288.7870560797903,664.8877708073859 C1288.7870560797903,664.8877708073859 1307.386023764811,664.8877669514388 1307.386023764811,664.8372270537624 C1307.386023764811,664.7866871560859 1307.5881833555168,667.0104773573738 1307.4871035601639,667.0104773573738 C1307.386023764811,667.0104773573738 1288.78705607979,669.588050698344 1288.78705607979,669.588050698344 C1288.78705607979,669.588050698344 1279.8399762582083,676.7452616501627 1279.2862070287295,680.6216040077052 C1278.7324377992506,684.4979463652477 1279.2862070287295,723.9997523848721 1279.2862070287295,723.9997523848721 C1279.2862070287295,723.9997523848721 1276.8865732278398,727.8761088253511 1265.4421171211231,729.1682182502199 C1253.9976610144065,730.4603276750886 1181.9751357953062,736.0339697635673 1103.5179354961856,735.1811651501697 C1025.060735197065,734.3283605367722 916.1871117312501,731.485707409077 916.1871117312501,731.485707409077 C916.1871117312501,731.485707409077 599.2312771493748,721.5364214621438 599.2312771493748,721.5364214621438 C599.2312771493748,721.5364214621438 563.2237244077897,780.8989703548966 563.2237244077897,780.8989703548966 C563.2237244077897,780.8989703548966 444.9029054807005,755.795009389421 444.9029054807005,755.795009389421 C444.9029054807005,755.795009389421 444.9029054807005,715.8682168375954 444.9029054807005,715.8682168375954 C444.9029054807005,715.8682168375954 128.28856647715327,679.56022941463 128.28856647715327,679.56022941463 C128.28856647715327,679.56022941463 128.28856647715327,570.733686050547 128.28856647715327,570.733686050547 C128.28856647715327,570.733686050547 301.74761215466714,548.5609829794356 301.74761215466714,548.5609829794356 C301.74761215466714,548.5609829794356 301.60144145710376,542.6296379812974 301.60144145710376,542.6296379812974 C301.60144145710376,542.6296379812974 270.62405232056886,544.5754507635544 254.59053171719063,545.9764404797797 C238.5570111138124,547.3774301960051 204.85547992540683,546.1321063337025 204.9333143369078,546.1321063337025 C205.0111487484088,546.1321063337025 204.99295291998538,520.5506938756747 204.99295291998538,520.5506938756747 C204.99295291998538,520.5506938756747 196.6881166282408,520.5506938756746 196.6881166282408,520.5506938756746 C196.6881166282408,520.5506938756746 196.77957354687248,492.67743616824896 196.77957354687248,492.67743616824896 C196.77957354687248,492.67743616824896 205.03604412129863,492.67743616824896 205.03604412129863,492.67743616824896 C205.03604412129863,492.67743616824896 98.32663619732352,267.6202081664319 98.32663619732352,267.6202081664319 C98.32663619732352,267.6202081664319 87.88787921578171,267.6202081664319 87.88787921578171,267.6202081664319 C87.88787921578171,267.6202081664319 87.88787921578171,251.12019643118822 87.88787921578171,251.12019643118822 C87.88787921578171,251.12019643118822 226.6227262926928,251.12019643118822 226.6227262926928,251.12019643118822 C226.6227262926928,251.12019643118822 477.40615423511446,483.55158505422753 477.40615423511446,483.55158505422753 C477.40615423511446,483.55158505422753 736.8605518674719,546.7736034644186 736.8605518674719,546.7736034644186 C736.8605518674719,546.7736034644186 823.5214732023654,546.470391377173 837.0101869875766,545.9024433670437 C850.4989007727878,545.3344953569144 881.1679849926969,544.766547346785 897.0704642800735,543.9146307479448 C912.97294356745,543.0627141491045 966.2533651855753,538.5191517334847 979.1741309606572,537.8092194289999 C992.0948967357391,537.0992871245151 1045.0558401506808,531.5618075666387 1058.6865490629546,530.993864972863 C1072.3172579752284,530.4259223790873 1083.6761748469853,529.1480420644732 1083.6761748469853,529.1480420644732 C1083.6761748469853,529.1480420644732 1098.9809001467986,518.5501687016842 1159.5494779632759,509.1478269293245 C1220.1180557797531,499.7454851569647 1253.7915848649193,492.9670548502177 1295.7741349499845,494.0603505991243 C1337.7566850350497,495.1536463480309 1371.8675257468308,501.494765028163 1394.6080639781924,513.7396740794429 C1417.348602209554,525.9845831307229 1459.549824790296,550.6930653877748 1459.549824790296,550.6930653877748 C1459.549824790296,550.6930653877748 1475.51194939728,560.7513829412417 1475.51194939728,560.7513829412417 C1475.51194939728,560.7513829412417 1484.4769545194708,565.3432217501754 1484.4769545194708,564.9059101235605 C1484.4769545194708,564.4685984969456 1571.557987611671,585.8425337245433 1615.0711450722579,597.2128028402241 C1658.5843025328447,608.5830719559049 1693.3511607316557,620.827997689554 1708.2199562249946,626.5131322473944 C1723.0887517183335,632.1982668052349 1755.231673427978,644.6618316698223 1755.231673427978,644.6618316698223 C1755.231673427978,644.6618316698223 1757.8430925409893,645.7848526432543 1757.8430925409893,645.7848526432543 C1757.8430925409893,645.7848526432543 1826.0354588132932,648.5430349149145 1826.0354588132932,648.5430349149145 C1826.0354588132932,648.5430349149145 1826.0354588132932,652.3796620044818 1826.0354588132932,652.3796620044818 Z" fill="#1f1f1f" stroke="#000000" stroke-width="5.7"/>
	</g>
	<g>
		<path d="M528.5446006889316,623.7465270534259 C528.5446006889316,623.7465270534259 528.5445506889316,613.807474790639 528.5445506889316,613.807474790639 C528.5445506889316,613.807474790639 588.3208985600103,616.6471931758709 588.3208985600103,616.36322458716 C588.3208985600103,616.079255998449 615.7094914653737,613.4248835444445 620.3544526588252,613.0714623747264 C624.9994138522766,612.7180412050083 651.7888314151612,610.0093434612699 665.4195403274351,609.0154317353667 C679.050249239709,608.0215200094636 729.5503435859703,604.087859416773 745.1164086193694,603.7142700556625 C760.6824736527685,603.340680694552 847.1133359139732,603.7142700556626 879.9066881460872,606.1014838413512 C912.7000403782012,608.4886976270398 1064.5370483498643,620.4157440586814 1095.2208757437008,621.9499266496598 C1125.9047031375374,623.4841092406382 989.0260668728451,624.6556019398481 989.0260668728451,624.6556019398481 C989.0260668728451,624.6556019398481 834.0727253659009,626.1897991620156 834.0727253659009,626.1897991620156 C834.0727253659009,626.1897991620156 834.1854061383171,630.5501604727792 829.7023908096248,630.5501604727792 C825.2193754809325,630.5501604727792 826.2156074433789,630.5501604727792 826.2156074433789,630.5501604727792 C826.2156074433789,630.5501604727792 827.4608926460508,637.6482823277005 821.7325731131422,637.5237557075877 C816.0042535802336,637.399229087475 528.5446006889316,623.7465270534259 528.5446006889316,623.7465270534259 Z" fill="#373737" stroke="#000000" stroke-width="5.7"/>
	</g>
	<g>
		<path d="M570.2842046274945,694.1888093005723 C570.2842046274945,694.1888093005723 571.1984235270963,676.782732099175 571.1984235270963,676.782732099175 C571.1984235270963,676.782732099175 565.8494156361598,676.5056911826481 565.8494156361598,676.5056911826481 C565.8494156361598,676.5056911826481 566.3836784608015,661.6068924592104 566.3836784608015,661.6068924592104 C566.3836784608015,661.6068924592104 571.9836714254021,661.7692113410824 571.9836714254021,661.7692113410824 C571.9836714254021,661.7692113410824 572.6763220039774,644.1281897211466 572.6763220039774,644.1281897211466 C572.6763220039774,644.1281897211466 618.4156273275935,647.0090072681093 618.4156273275935,647.0090072681093 C618.4156273275935,647.0090072681093 640.951708490129,664.9630736739855 640.951708490129,664.9630736739855 C640.951708490129,664.9630736739855 841.337880985369,673.6565760844255 841.337880985369,673.6565760844255 C841.337880985369,673.6565760844255 842.0959910183572,658.2416701523604 842.0959910183572,658.1911302546839 C842.0959910183572,658.1405903570075 843.5111312889804,658.1405903570075 843.5111312889804,658.1405903570075 C843.5111312889804,658.1405903570075 849.0706048642265,664.9130388282505 849.0706048642265,664.9130388282505 C849.0706048642265,664.9130388282505 862.9187450487184,674.768469257096 862.9187450487184,674.768469257096 C862.9187450487184,674.768469257096 877.3728820620267,676.3588606675254 877.3728820620267,676.3588606675254 C877.3728820620267,676.3588606675254 887.7763873867004,677.8356983941255 892.2725367972497,679.1484430399925 C896.768686207799,680.4611876858594 899.0331737265534,686.4341773268707 892.2725367972497,688.1735624803272 C885.511899867946,689.9129476337837 872.0890878670467,690.0770407145171 872.0890878670467,690.0770407145171 C872.0890878670467,690.0770407145171 862.4075961037786,689.9785863683941 862.4075961037786,689.9785863683941 C862.4075961037786,689.9785863683941 847.7704912992738,698.412969716544 847.7704912992738,698.412969716544 C847.7704912992738,698.412969716544 841.6334110813908,704.681324899786 841.6334110813908,704.681324899786 C841.6334110813908,704.681324899786 840.1565733547907,704.681324899786 840.1565733547907,704.681324899786 C840.1565733547907,704.681324899786 840.6816707123651,688.994027883994 840.6816707123651,688.994027883994 C840.6816707123651,688.994027883994 640.0760914020277,679.8874828619971 640.0760914020277,679.8874828619971 C640.0760914020277,679.8874828619971 616.4928021205702,695.5318403151082 616.4928021205702,695.5318403151082 C616.4928021205702,695.5318403151082 570.2842046274945,694.1888093005723 570.2842046274945,694.1888093005723 Z" transform="matrix(1,0,0,1,-40.675022991,-52.454830661)" fill="#373737" stroke="#000000" stroke-width="5.700000000000002"/>
	</g>
	<g>
		<path d="M1159.5494779632759,510.1478269293245 C1220.118055779753,500.7454851569647 1253.7915848649193,493.9670548502177 1295.7741349499845,495.0603505991243 C1337.7566850350497,496.1536463480309 1371.8675257468308,502.494765028163 1394.6080639781924,514.7396740794429 C1417.348602209554,526.9845831307229 1459.549824790296,551.6930653877748 1459.549824790296,551.6930653877748 C1459.549824790296,551.6930653877748 1475.51194939728,561.7513829412417 1475.51194939728,561.7513829412417 C1475.51194939728,561.7513829412417 1484.4769545194708,565.3432217501754 1484.4769545194708,564.9059101235605 C1484.4769545194708,564.8552733533828 1432.251027741999,566.128449715048 1374.587512058619,562.3290775461179 C1335.374253700229,559.7453682336649 1294.681994549205,553.8163970119281 1262.16005074839,547.4186522456878 C1238.7636382130652,542.8160898415636 1229.4400964327551,511.3896362707451 1222.919765554138,500.26675030359837 C1222.919765554138,500.26675030359837 1210.9468739134918,502.04453384681005 1210.9468739134918,502.04453384681005 C1211.0647360358328,502.2986174174842 1225.7719034533347,530.7043754748607 1225.914791344372,530.9260979477384 C1237.0376846271133,548.1857508567715 1209.2991316723244,539.670477516593 1198.874656748602,537.8299561851138 C1178.2052617506854,534.1806153136744 1145.0945828547606,530.2538941826591 1126.6171495755118,527.8318241488228 C1093.2053976708373,523.4521247694089 1142.9993955631185,512.7169731219012 1159.5494779632759,510.1478269293245 Z" fill="#373737" stroke="#000000" stroke-width="5.7"/>
	</g>
	<g mask="url(#mask-16471094774179452624)"/>
	<g>
		<path d="M301.74761215466714,548.5609829794356 C301.74761215466714,548.5609829794356 462.27565374802225,541.333949002475 501.9200456309163,541.0502670887513 C541.5644375138104,540.7665851750276 736.8605518674719,546.7736034644186 736.8605518674719,546.7736034644186" fill="none" stroke="#000000" stroke-width="5.7"/>
	</g>
	<g>
		<path d="M444.90290548070044,715.8682168375952 C444.90290548070044,715.8682168375952 444.9028554807004,697.6702313030805 444.9028554807004,697.6702313030805 C444.9028554807004,697.6702313030805 586.9983339763701,702.0762840375104 607.1816577807152,706.7692240703377 C607.1816577807147,706.7692240703376 563.2237244077896,780.8989703548965 563.2237244077896,780.8989703548965 C563.2237244077896,780.8989703548965 444.90290548070044,755.7950093894209 444.90290548070044,755.7950093894209 C444.90290548070044,755.7950093894209 444.90290548070044,715.8682168375952 444.90290548070044,715.8682168375952 Z" fill="none" stroke="#000000" stroke-width="5.7"/>
	</g>
	<g>
		<path d="M252.8870867759362,554.8066642979827 C252.8870867759362,554.8066642979827 252.90029437936317,693.8501730213114 252.90029437936317,693.8501730213114" fill="#fefefe" stroke="#000000" stroke-width="5.7"/>
	</g>
	<g>
		<path d="M1555.9019062665343,665.5651120840336 C1555.9019062665343,665.5651120840336 1557.1891595793568,582.5168370668521 1557.1891595793568,582.5168370668521" fill="#fefefe" stroke="#000000" stroke-width="5.7"/>
	</g>
	<g>
		<path d="M205.03604412129852,492.6774361682489 C205.03604412129852,492.6774361682489 285.9521182163039,492.04641039078416 285.9521182163039,492.04641039078416 C285.9521182163039,492.04641039078416 423.4965917246713,492.0463603907842 423.4965917246713,492.0463603907842 C423.4965917246713,492.0463603907842 470.1871409075129,486.4928198245989 477.40615423511446,483.55158505422753" fill="none" stroke="#000000" stroke-width="5.7"/>
	</g>
	<g>
		<path d="M98.32663619732352,267.6202081664319 C98.32663619732352,267.6202081664319 243.40808190091013,266.6772192558592 243.40808190091013,266.6772192558592" fill="#fefefe" stroke="#000000" stroke-width="5.7"/>
	</g>
	<g>
		<path d="M285.95211821630386,492.0464103907841 C285.95211821630386,492.0464103907841 146.7957402746643,267.3051725157415 146.7957402746643,267.3051725157415" fill="#fefefe" stroke="#000000" stroke-width="5.7"/>
	</g>
</g></g></svg>